HIERARCHY
ROOT Hips
{
	OFFSET 0.00000 0.00000 0.00000
	CHANNELS 6 Xposition Yposition Zposition Zrotation Yrotation Xrotation 
	JOINT LHipJoint
	{
		OFFSET 0 0 0
		CHANNELS 3 Zrotation Yrotation Xrotation
		JOINT LeftUpLeg
		{
			OFFSET 1.30186 -1.90722 0.65024
			CHANNELS 3 Zrotation Yrotation Xrotation
			JOINT LeftLeg
			{
				OFFSET 2.56413 -7.04489 0.00000
				CHANNELS 3 Zrotation Yrotation Xrotation
				JOINT LeftFoot
				{
					OFFSET 2.79321 -7.67428 0.00000
					CHANNELS 3 Zrotation Yrotation Xrotation
					JOINT LeftToeBase
					{
						OFFSET 0.15723 -0.43198 2.08537
						CHANNELS 3 Zrotation Yrotation Xrotation
						End Site
						{
							OFFSET 0.00000 -0.00000 1.07411
						}
					}
				}
			}
		}
	}
	JOINT RHipJoint
	{
		OFFSET 0 0 0
		CHANNELS 3 Zrotation Yrotation Xrotation
		JOINT RightUpLeg
		{
			OFFSET -1.28627 -1.90723 0.65024
			CHANNELS 3 Zrotation Yrotation Xrotation
			JOINT RightLeg
			{
				OFFSET -2.56567 -7.04913 0.00000
				CHANNELS 3 Zrotation Yrotation Xrotation
				JOINT RightFoot
				{
					OFFSET -2.75597 -7.57198 0.00000
					CHANNELS 3 Zrotation Yrotation Xrotation
					JOINT RightToeBase
					{
						OFFSET -0.17500 -0.48081 2.22901
						CHANNELS 3 Zrotation Yrotation Xrotation
						End Site
						{
							OFFSET -0.00000 -0.00000 1.14762
						}
					}
				}
			}
		}
	}
	JOINT LowerBack
	{
		OFFSET 0 0 0
		CHANNELS 3 Zrotation Yrotation Xrotation
		JOINT Spine
		{
			OFFSET -0.04522 2.07467 -0.16566
			CHANNELS 3 Zrotation Yrotation Xrotation
			JOINT Spine1
			{
				OFFSET -0.01178 2.08825 -0.05393
				CHANNELS 3 Zrotation Yrotation Xrotation
				JOINT Neck
				{
					OFFSET 0 0 0
					CHANNELS 3 Zrotation Yrotation Xrotation
					JOINT Neck1
					{
						OFFSET -0.05182 1.80489 0.16014
						CHANNELS 3 Zrotation Yrotation Xrotation
						JOINT Head
						{
							OFFSET 0.14739 1.78840 -0.33342
							CHANNELS 3 Zrotation Yrotation Xrotation
							End Site
							{
								OFFSET 0.04364 1.83899 -0.13460
							}
						}
					}
				}
				JOINT LeftShoulder
				{
					OFFSET 0 0 0
					CHANNELS 3 Zrotation Yrotation Xrotation
					JOINT LeftArm
					{
						OFFSET 3.01264 1.29090 -0.06579
						CHANNELS 3 Zrotation Yrotation Xrotation
						JOINT LeftForeArm
						{
							OFFSET 5.55680 -0.00000 0.00000
							CHANNELS 3 Zrotation Yrotation Xrotation
							JOINT LeftHand
							{
								OFFSET 3.63979 -0.00000 -0.00000
								CHANNELS 3 Zrotation Yrotation Xrotation
								JOINT LeftFingerBase
								{
									OFFSET 0 0 0
									CHANNELS 3 Zrotation Yrotation Xrotation
									JOINT LeftHandIndex1
									{
										OFFSET 0.56942 -0.00000 -0.00000
										CHANNELS 3 Zrotation Yrotation Xrotation
										End Site
										{
											OFFSET 0.45908 -0.00000 -0.00000
										}
									}
								}
								JOINT LThumb
								{
									OFFSET 0 0 0
									CHANNELS 3 Zrotation Yrotation Xrotation
									End Site
									{
										OFFSET 0.46609 -0.00000 0.46609
									}
								}
							}
						}
					}
				}
				JOINT RightShoulder
				{
					OFFSET 0 0 0
					CHANNELS 3 Zrotation Yrotation Xrotation
					JOINT RightArm
					{
						OFFSET -3.15796 1.37283 -0.36748
						CHANNELS 3 Zrotation Yrotation Xrotation
						JOINT RightForeArm
						{
							OFFSET -5.34339 -0.00000 0.00000
							CHANNELS 3 Zrotation Yrotation Xrotation
							JOINT RightHand
							{
								OFFSET -3.65101 -0.00000 -0.00000
								CHANNELS 3 Zrotation Yrotation Xrotation
								JOINT RightFingerBase
								{
									OFFSET 0 0 0
									CHANNELS 3 Zrotation Yrotation Xrotation
									JOINT RightHandIndex1
									{
										OFFSET -0.69425 -0.00000 -0.00000
										CHANNELS 3 Zrotation Yrotation Xrotation
										End Site
										{
											OFFSET -0.55972 -0.00000 -0.00000
										}
									}
								}
								JOINT RThumb
								{
									OFFSET 0 0 0
									CHANNELS 3 Zrotation Yrotation Xrotation
									End Site
									{
										OFFSET -0.56827 -0.00000 0.56827
									}
								}
							}
						}
					}
				}
			}
		}
	}
}
MOTION
Frames: 12
Frame Time: 0.015748
0.00 0.00 0.00 0 0 0 0 0 0 -21 0 0 0 0 0 0 0 0 0 0 0 0 0 0 21 0 0 0 0 0 0 0 0 0 0 0 0 0 0 0 0 0 0 0 0 0 0 -16 0 0 21 0 0 11 0 0 0 -8 0 0 0 0 0 0 0 0 0 0 0 0 0 0 0 0 0 0 0 0 8 0 0 0 0 0 0 0 0 0 0 0 0 0 0 0 0 0
0.00 0.00 0.00 179.1720 6.8421 -175.0980 0.0000 0.0000 0.0000 -7.7760 -13.0861 -25.2029 5.8195 14.2511 44.2528 0.1792 0.2288 -8.0811 0.4960 -4.5152 -12.5308 0.0000 0.0000 0.0000 22.1455 8.0548 -2.9930 -2.0988 -9.0689 26.0111 -1.1461 -8.1813 -24.7247 -0.6686 -5.2290 14.5628 0.9768 1.7857 0.9992 -0.0421 2.4144 1.5962 -0.5887 1.2312 1.1166 -1.8821 1.0547 -6.7005 -3.7766 2.3907 11.1713 -0.7041 1.0059 4.4763 0.0000 0.0000 0.0000 -87.3051 7.7765 8.3006 21.5409 -32.4543 -6.3377 -0.0000 0.0000 -0.9474 21.8600 19.3960 7.5889 -7.1250 0.0000 -0.0000 -6.4677 50.6428 -0.9026 0.0000 0.0000 0.0000 88.6122 -7.7557 10.0471 -17.2550 27.1927 -4.2032 0.0000 0.0000 3.1237 -23.0429 28.5733 -11.4994 7.1250 -0.0000 -0.0000 4.4068 0.5585 4.4627
0.00 0.00 0.00 180.0580 10.6106 -173.8560 0.0000 0.0000 0.0000 -5.9806 -14.6293 -29.4793 4.4313 12.7132 38.3042 0.2056 0.3162 -8.6841 0.6081 -4.9911 -13.8833 0.0000 0.0000 0.0000 21.8735 9.3068 -1.6458 -1.9035 -8.6622 24.7442 -1.1747 -7.4193 -24.4063 -0.5761 -4.8604 13.5110 1.3079 1.9338 2.4526 0.2764 2.6687 2.2642 -0.4881 1.3799 0.9925 -0.4157 1.8540 -9.8176 -4.5148 3.1227 8.3418 -1.1129 1.3183 4.1687 0.0000 -0.0000 0.0000 -88.6881 18.8153 18.5711 75.4035 -59.1794 -47.3939 -0.0000 0.0000 -6.9893 18.5617 21.6855 7.0731 -7.1250 0.0000 -0.0000 -10.4969 52.4349 -1.9382 0.0000 -0.0000 0.0000 85.5681 -15.6030 27.7208 -39.1712 47.5711 -17.8251 0.0000 -0.0000 -12.1472 -21.0834 33.0588 -11.8767 7.1250 -0.0000 -0.0000 6.1662 4.7383 6.6920
0.00 0.00 0.00 180.4180 10.8050 -173.6040 0.0000 0.0000 0.0000 -5.4972 -14.7649 -29.4312 3.6880 11.7332 34.7945 0.1684 0.9531 -8.1593 0.4177 -4.1483 -11.4943 0.0000 0.0000 0.0000 22.0222 9.1006 -1.1381 -1.8130 -8.4653 24.1365 -1.1965 -7.1856 -24.4182 -0.5575 -4.7829 13.2905 1.4163 1.9549 2.5742 0.4846 2.7177 2.6066 -0.3324 1.4164 1.2717 -0.7880 1.8830 -10.8108 -4.2049 3.1575 7.7544 -0.9496 1.3324 4.1423 -0.0000 0.0000 0.0000 -88.3419 19.8085 19.4975 97.0263 -59.8126 -66.0811 -0.0000 0.0000 -11.5714 15.4687 20.4193 5.5148 -7.1250 0.0000 -0.0000 -13.0362 50.6420 -1.8395 -0.0000 0.0000 0.0000 83.8003 -17.6708 31.0082 -53.6844 54.3775 -29.1436 0.0000 -0.0000 -14.4910 -19.2282 34.1666 -11.0828 7.1250 -0.0000 -0.0000 7.3539 5.4688 8.0854
0.00 0.00 0.00 180.4060 10.9956 -174.4120 0.0000 0.0000 0.0000 -5.6748 -15.0316 -28.0986 3.0763 10.8175 31.6670 0.1610 0.7081 -7.8715 0.3240 -3.6586 -10.1182 0.0000 0.0000 0.0000 21.7906 8.1508 0.6518 -1.6779 -8.1603 23.2020 -1.2750 -6.5527 -24.6172 -0.5407 -4.7111 13.0864 1.3834 2.0555 3.6836 0.4897 2.8939 2.7988 -0.3532 1.5133 0.8504 -0.5867 1.9544 -10.3844 -4.2893 3.1833 6.7209 -1.1181 1.3779 4.1584 0.0000 0.0000 0.0000 -86.7569 21.0007 20.2183 117.5262 -56.9339 -83.5930 -0.0000 0.0000 -15.4751 9.2940 24.6474 3.9042 -7.1250 0.0000 -0.0000 -21.0110 53.6628 -4.6346 0.0000 0.0000 0.0000 81.8424 -20.1845 33.4811 -75.4290 59.1824 -47.4158 0.0000 -0.0000 -18.3131 -17.4140 34.1570 -9.9875 7.1250 -0.0000 -0.0000 8.3494 5.1025 9.1529
0.00 0.00 0.00 180.4330 9.8237 -173.5440 0.0000 0.0000 0.0000 -5.2336 -16.1166 -28.9966 2.4900 9.8198 28.3951 0.0776 1.0709 -5.7709 0.3900 -4.0100 -11.1048 0.0000 0.0000 0.0000 21.9412 8.5521 0.5117 -1.6680 -8.1373 23.1318 -1.2771 -7.6722 -25.3829 -0.5585 -4.7868 13.3013 0.8991 1.5176 3.1078 0.6758 2.1561 2.9115 0.1483 1.1377 1.2503 -0.4928 2.1304 -10.6904 -4.4637 3.3841 5.6916 -1.1747 1.4883 3.8626 0.0000 -0.0000 0.0000 -84.9371 20.4465 19.5158 133.1941 -51.6231 -96.3539 -0.0000 0.0000 -18.3088 0.8438 25.5861 0.3644 -7.1250 0.0000 -0.0000 -29.6064 53.0054 -6.2692 0.0000 -0.0000 0.0000 79.4758 -19.8345 35.8133 -99.4070 59.6630 -68.1375 0.0000 -0.0000 -20.8745 -16.3537 34.9070 -9.5321 7.1250 -0.0000 -0.0000 9.0260 5.6486 9.9900
0.00 0.00 0.00 180.8010 9.2351 -174.1560 0.0000 0.0000 0.0000 -5.0607 -16.7355 -28.1450 2.0534 8.9765 25.7219 0.0369 1.4737 -4.4844 0.7817 -5.6447 -15.7570 0.0000 0.0000 0.0000 22.3444 7.6409 2.5657 -1.4913 -7.7146 21.8506 -1.2158 -8.3831 -25.4174 -0.3483 -3.7918 10.4916 1.5222 1.3472 3.8790 0.6356 1.9739 2.9810 -0.2588 1.0634 0.9128 -0.0509 2.1496 -10.1754 -4.6019 3.3250 5.2042 -1.3063 1.4771 3.6013 0.0000 -0.0000 0.0000 -81.1612 19.8500 18.7765 144.6642 -45.0505 -104.9495 -0.0000 0.0000 -23.2896 -2.9538 28.6329 -1.4164 -7.1250 0.0000 -0.0000 -35.3417 54.8847 -9.4552 0.0000 -0.0000 0.0000 77.9686 -19.0405 36.4478 -120.6340 56.1386 -86.1859 0.0000 -0.0000 -22.8949 -15.6424 35.0805 -9.1420 7.1250 -0.0000 -0.0000 9.4344 5.6900 10.4599
0.00 0.00 0.00 180.6260 9.4010 -174.0390 0.0000 0.0000 0.0000 -5.1318 -17.2956 -28.1958 1.7157 8.2469 23.4667 0.0288 1.8972 -4.4739 0.6587 -5.1911 -14.4544 0.0000 0.0000 0.0000 21.8907 7.3338 4.5335 -1.2470 -7.0802 19.9533 -1.1602 -8.9104 -25.3803 -0.3022 -3.5348 9.7714 0.8098 1.2549 4.1387 0.5423 1.8172 2.6893 0.0360 0.9648 0.4468 0.2033 2.3118 -9.8467 -4.7158 3.5041 5.0732 -1.3804 1.5719 3.5052 -0.0000 0.0000 0.0000 -75.8205 17.2236 15.0402 154.4953 -36.7154 -111.4102 -0.0000 0.0000 -30.9635 -0.8717 25.9775 -0.3818 -7.1250 0.0000 -0.0000 -31.4553 53.0409 -6.7547 -0.0000 0.0000 0.0000 74.8390 -14.9281 36.4536 -139.9846 48.0790 -101.5493 0.0000 -0.0000 -25.1761 -15.8389 35.8407 -9.4318 7.1250 -0.0000 -0.0000 9.4245 6.4773 10.5641
0.00 0.00 0.00 180.0400 8.8697 -172.5410 0.0000 0.0000 0.0000 -5.6019 -18.7227 -30.8668 1.6335 8.0568 22.8867 -0.0021 3.3059 -4.6122 1.0039 -6.3757 -17.8784 0.0000 0.0000 0.0000 20.7012 7.3733 6.1389 -1.0072 -6.3858 17.9081 -1.2070 -9.6049 -26.2715 -0.3465 -3.7821 10.4644 -0.7535 1.3610 3.8368 0.2688 1.8324 1.3911 0.6161 0.9328 -0.7551 0.0364 1.9361 -9.7396 -4.0315 2.9899 6.1058 -1.1584 1.3197 3.8122 0.0000 0.0000 0.0000 -64.2084 6.9160 0.6495 162.7083 -27.2408 -115.7800 -0.0000 0.0000 -47.1878 0.8039 24.6999 0.3359 -7.1250 0.0000 -0.0000 -29.0694 52.2270 -5.5568 0.0000 0.0000 0.0000 71.2928 -1.1742 27.2982 -156.2176 34.9333 -112.4184 0.0000 -0.0000 -28.8122 -23.2356 38.7957 -15.0561 7.1250 -0.0000 -0.0000 6.0116 11.0014 7.0836
0.00 0.00 0.00 180.1160 7.7085 -171.8910 0.0000 0.0000 0.0000 -6.8654 -19.1474 -33.5458 2.6142 10.0426 29.1147 -0.0100 1.9113 0.0633 0.3700 -3.9071 -10.8155 0.0000 0.0000 0.0000 20.2676 6.3901 8.6173 -0.8685 -5.9420 16.6164 -1.3781 -9.9965 -27.8167 -0.4165 -4.1423 11.4772 -1.6762 2.1159 3.6826 -0.1022 2.7715 0.6192 0.6956 1.4002 -1.5010 -0.3030 0.7233 -8.9647 -2.1160 1.1908 5.6837 -0.5733 0.5008 3.4418 -0.0000 -0.0000 0.0000 -52.3272 -13.3417 -14.9154 160.5384 -29.9883 -114.7404 -0.0000 0.0000 -53.8332 -0.5771 21.6236 -0.2127 -7.1250 0.0000 -0.0000 -28.5048 49.3116 -3.2715 -0.0000 -0.0000 0.0000 67.6533 16.8865 8.2045 -160.5717 29.9474 -114.7571 0.0000 -0.0000 -35.4818 -19.8100 31.3921 -10.6271 7.1250 -0.0000 -0.0000 6.6490 2.7903 7.0113
0.00 0.00 0.00 179.4140 7.0828 -172.2260 0.0000 0.0000 0.0000 -9.5902 -16.8966 -35.0303 3.2616 11.1069 32.6413 -0.0055 -1.3400 0.2324 0.9349 -6.1589 -17.2463 0.0000 0.0000 0.0000 18.9653 4.9062 6.6328 -1.5094 -7.7592 21.9849 -1.2263 -10.6727 -27.2625 -0.1391 -2.4040 6.6235 -2.4638 2.5291 4.7468 -0.8786 3.2336 -0.0442 0.2436 1.6484 -2.7895 -1.2787 -0.2505 -7.0849 0.2244 -0.2278 5.3284 0.2846 -0.1341 2.9443 -0.0000 0.0000 0.0000 -47.6227 -23.2517 -14.1993 149.5136 -41.3067 -108.2706 -0.0000 0.0000 -55.4822 -0.5920 21.3533 -0.2155 -7.1250 0.0000 -0.0000 -28.3699 49.0715 -3.0746 -0.0000 0.0000 0.0000 63.9856 23.9926 8.3113 -151.6071 39.4754 -109.6275 0.0000 -0.0000 -36.5677 -20.3449 35.8024 -12.2388 7.1250 -0.0000 -0.0000 6.9952 7.3413 7.8872
0.00 0.00 0.00 178.9960 6.6353 -173.2720 0.0000 0.0000 0.0000 -11.6557 -15.3479 -34.4268 3.5833 11.5842 34.2766 -0.0320 -3.3067 0.2166 0.5641 -4.8105 -13.3690 0.0000 0.0000 0.0000 17.6565 3.5159 1.9767 -3.1790 -10.9793 32.2100 -1.0361 -10.0723 -25.3340 -0.0865 -1.8971 5.2214 -2.9408 2.4680 5.1687 -1.0914 3.1671 0.9349 0.3048 1.6224 -2.0281 -2.3905 -0.5309 -7.4456 1.2816 -0.5584 5.7375 0.8096 -0.2836 3.1703 -0.0000 -0.0000 0.0000 -44.2527 -29.1943 -9.3554 134.6562 -50.9358 -97.4946 -0.0000 0.0000 -45.1683 0.7411 19.5870 0.2485 -7.1250 0.0000 -0.0000 -26.2728 47.6911 -1.8672 -0.0000 -0.0000 0.0000 57.9785 29.9279 11.9416 -134.5592 50.9826 -97.4193 0.0000 -0.0000 -31.7555 -16.2237 33.4337 -9.1081 7.1250 -0.0000 -0.0000 8.9162 4.1622 9.6540
